<svg id="图层_1" data-name="图层 1" xmlns="http://www.w3.org/2000/svg" viewBox="0 0 22.76 28.01"><title>mima-2</title><path d="M23.88,30H8.12a3.5,3.5,0,0,1-3.5-3.5V16a3.5,3.5,0,0,1,3.5-3.5h0V9.87a7.88,7.88,0,0,1,15.76,0V12.5a3.5,3.5,0,0,1,3.5,3.5V26.5A3.5,3.5,0,0,1,23.88,30ZM22.13,9.87a6.13,6.13,0,0,0-12.26,0V12.5H22.13ZM25.63,16a1.75,1.75,0,0,0-1.75-1.75H8.12A1.75,1.75,0,0,0,6.37,16V26.5a1.75,1.75,0,0,0,1.75,1.75H23.88a1.75,1.75,0,0,0,1.75-1.75V16ZM16,24.75a.88.88,0,0,1-.88-.88V18.63a.88.88,0,0,1,1.75,0v5.25A.88.88,0,0,1,16,24.75Z" transform="translate(-4.62 -1.99)"/></svg>