<svg id="图层_1" data-name="图层 1" xmlns="http://www.w3.org/2000/svg" viewBox="0 0 13.13 14.88"><title>yonghu-3</title><path d="M13,5.53a4.94,4.94,0,0,0-4.92-5H8a4.94,4.94,0,0,0-5,4.92s0,0,0,0A4.81,4.81,0,0,0,5.6,9.82a6.67,6.67,0,0,0-4.13,5,.56.56,0,0,0,.44.66H2A.54.54,0,0,0,2.57,15,5.6,5.6,0,0,1,8,10.49h.11A4.93,4.93,0,0,0,13,5.53Zm-8.82,0A3.83,3.83,0,0,1,8,1.67H8a3.83,3.83,0,0,1,3.86,3.81s0,0,0,0a3.89,3.89,0,0,1-3.8,3.86H7.91A3.84,3.84,0,0,1,4.17,5.53Zm7.49,5a.56.56,0,0,0-.6.94A5.62,5.62,0,0,1,13.48,15a.54.54,0,0,0,.55.44h.11a.57.57,0,0,0,.44-.66A6.7,6.7,0,0,0,11.66,10.54Z" transform="translate(-1.46 -0.57)"/></svg>