<?xml version="1.0" standalone="no"?><!DOCTYPE svg PUBLIC "-//W3C//DTD SVG 1.1//EN" "http://www.w3.org/Graphics/SVG/1.1/DTD/svg11.dtd"><svg class="icon" width="200px" height="200.00px" viewBox="0 0 1024 1024" version="1.1" xmlns="http://www.w3.org/2000/svg"><path d="M512 897.024c-249.856 0-450.56-200.704-450.56-446.464S262.144 0 512 0c249.856 0 450.56 200.704 450.56 446.464S761.856 897.024 512 897.024zM512 319.488c-143.36 0-258.048 98.304-258.048 225.28 0 122.88 114.688 225.28 258.048 225.28s258.048-98.304 258.048-225.28C770.048 421.888 655.36 319.488 512 319.488zM512 638.976c-36.864 0-65.536-28.672-65.536-65.536 0-36.864 28.672-65.536 65.536-65.536 36.864 0 65.536 28.672 65.536 65.536C577.536 610.304 548.864 638.976 512 638.976zM262.144 897.024c73.728 40.96 159.744 65.536 249.856 65.536s176.128-24.576 249.856-65.536l73.728 0L901.12 1024 122.88 1024l65.536-126.976L262.144 897.024z" /></svg>