<?xml version="1.0" standalone="no"?><!DOCTYPE svg PUBLIC "-//W3C//DTD SVG 1.1//EN" "http://www.w3.org/Graphics/SVG/1.1/DTD/svg11.dtd"><svg class="icon" width="200px" height="200.00px" viewBox="0 0 1024 1024" version="1.1" xmlns="http://www.w3.org/2000/svg"><path d="M887.885198 542.145417c-5.163499 185.009164-171.077609 333.623004-375.438453 333.623004-203.677906 0-369.109744-147.635503-375.334523-331.772258-32.540338-16.662703-57.171038-36.417309-70.204801-59.547427-3.08331-49.981513 0-190.997104 0-223.605795 140.390415-150.240137 746.051777-152.569758 891.080048 0 0 48.913237 0 197.985366 0 223.605795C944.656507 506.641489 920.118344 525.815489 887.885198 542.145417zM373.218942 749.983903l8.523221 0c19.182994 32.495968 70.171624 55.904896 130.704582 55.904896 60.536756 0 111.526185-23.409129 130.709179-55.904896l8.522222 0 0-181.680421-2.795105 0c-12.903252-63.79055-69.077965-111.805396-136.436096-111.805396-67.354733 0-123.534444 48.014846-136.436096 111.805396l-2.791507 0L373.219341 749.983903 373.218942 749.983903zM888.373867 291.275507c-127.991022-92.421538-583.678266-99.531318-751.850445-2.482317 0 16.766033-1.500583 91.753591 1.099255 117.453566 132.370453-83.205786 614.288912-82.105532 750.751191 0C888.373867 393.073888 888.373867 316.425456 888.373867 291.275507zM512.446745 596.253532c38.448932 0 69.617599 34.413668 69.617599 76.867684 0 42.44822-31.168668 76.862687-69.617599 76.862687-38.445334 0-69.614202-34.414467-69.614202-76.862687C442.832544 630.6672 474.001411 596.253532 512.446745 596.253532z" /></svg>