<?xml version="1.0" standalone="no"?><!DOCTYPE svg PUBLIC "-//W3C//DTD SVG 1.1//EN" "http://www.w3.org/Graphics/SVG/1.1/DTD/svg11.dtd"><svg class="icon" width="32px" height="32.00px" viewBox="0 0 1024 1024" version="1.1" xmlns="http://www.w3.org/2000/svg"><path d="M682.648933 105.66093c18.739702 8.611481 38.014581 16.224371 56.121802 26.004727 89.267491 48.215781 150.842015 120.671423 186.387485 215.485291 1.092247 2.916714 2.233147 6.049931 2.265988 9.093141 8.584722 22.127128 11.947822 38.58868 11.947822 61.129354-141.132205 25.810118-293.990863 55.547703-435.928266 81.504995 1.999615-18.869848 3.871518-36.798271 5.803019-54.719396 5.484346-50.861257 10.990585-101.721299 16.489527-152.580123 5.500158-50.860041 10.982071-101.723731 16.528449-152.577691 1.215095-11.128029 6.630111-53.82784 7.977783-64.940056 45.452323 0 86.882305 18.594961 132.406391 31.599758z m-102.584879 310.720003l279.046051-51.082626c-36.367696-106.723985-142.791253-192.630809-251.109822-208.081606-9.276803 86.077107-18.55239 172.117726-27.936229 259.164232z"  /><path d="M484.508235 147.883947l-44.73105 414.644041c147.629738-26.975344 293.972619-53.714723 440.299687-80.454102 25.122902 125.728843-20.790403 297.052318-168.816657 397.242281-149.979651 101.512093-345.427436 90.121341-482.117674-23.545347-139.909812-116.342572-182.708145-311.455872-108.666434-473.874734 76.744354-168.356892 241.656653-237.907983 364.032128-234.012139z"  /></svg>